<svg width="261" height="260" viewBox="0 0 261 260" fill="none" xmlns="http://www.w3.org/2000/svg">
<g filter="url(#filter0_d_25_410)">
<rect x="40.9329" y="36" width="180" height="180" rx="32" fill="white"/>
<rect x="41.4329" y="36.5" width="179" height="179" rx="31.5" stroke="#D9D9D9"/>
</g>
<path d="M166.264 156.016C165.543 156.016 164.846 155.759 164.297 155.292C163.749 154.824 163.385 154.175 163.272 153.463C163.159 152.751 163.303 152.022 163.679 151.407C164.055 150.792 164.639 150.332 165.324 150.108C171.085 148.223 174.807 143.173 174.807 137.243C174.807 129.733 168.698 123.623 161.188 123.623C160.666 123.623 160.105 123.664 159.422 123.752L156.461 124.136L156.035 121.179C154.215 108.501 143.171 98.9402 130.345 98.9402C119.742 98.9402 110.302 105.288 106.299 115.113L105.545 116.961L103.55 116.998C94.3827 117.166 86.9245 124.759 86.9245 133.921C86.9245 140.61 90.8081 146.71 96.8178 149.461C97.5482 149.796 98.1159 150.406 98.396 151.159C98.6761 151.912 98.6456 152.745 98.3114 153.476C97.9771 154.206 97.3664 154.774 96.6136 155.054C95.8608 155.334 95.0275 155.303 94.2971 154.969C86.1374 151.235 80.8655 142.973 80.8655 133.922C80.8655 122.143 89.9413 112.275 101.469 111.063C106.781 99.9566 117.913 92.8835 130.344 92.8835C145.223 92.8835 158.157 103.315 161.511 117.569C172.212 117.743 180.865 126.502 180.865 137.244C180.865 145.709 175.376 153.191 167.208 155.865C166.896 155.967 166.577 156.016 166.264 156.016Z" fill="#0071CE"/>
<path d="M119.935 157.326L119.933 157.325L119.93 157.325H119.93L119.929 157.324L119.928 157.323C119.928 157.323 119.927 157.323 119.927 157.322H119.926L119.926 157.322C119.926 157.321 119.925 157.321 119.925 157.321L119.924 157.32H119.923L119.923 157.319L119.922 157.318L119.919 157.318L119.919 157.317L119.918 157.316L119.917 157.315L119.915 157.314C119.914 157.315 119.914 157.314 119.913 157.314L119.912 157.313L119.911 157.312L119.91 157.311C119.909 157.311 119.908 157.311 119.907 157.311L119.904 157.31L119.902 157.309H119.901C119.901 157.308 119.9 157.308 119.899 157.308C119.898 157.307 119.896 157.307 119.896 157.307H119.896L119.894 157.307C119.893 157.307 119.893 157.306 119.893 157.306H119.892C119.845 157.289 119.795 157.279 119.744 157.277H119.739H119.737L119.736 157.276H119.728H119.729H119.723C118.414 157.276 117.343 156.21 117.335 154.904V128.291H119.374C119.685 128.304 119.896 128.065 119.896 127.779C119.896 127.564 119.765 127.381 119.579 127.304L109.793 120.55C109.707 120.491 109.606 120.459 109.502 120.459C109.398 120.459 109.296 120.491 109.21 120.55L99.348 127.357C99.2585 127.419 99.1912 127.509 99.1559 127.612C99.1205 127.715 99.119 127.827 99.1514 127.931C99.1838 128.035 99.2486 128.126 99.3362 128.191C99.4239 128.256 99.5299 128.291 99.639 128.291H101.678L101.68 154.911C101.69 156.752 103.168 158.254 105.049 158.301C105.071 158.304 105.091 158.305 105.112 158.305H119.73C119.865 158.303 119.987 158.249 120.077 158.163L120.078 158.162L120.082 158.158C120.082 158.157 120.083 158.157 120.084 158.156L120.085 158.155L120.085 158.154L120.086 158.153L120.087 158.152L120.088 158.152L120.089 158.151C120.09 158.15 120.089 158.15 120.09 158.149L120.091 158.148L120.092 158.148L120.092 158.147C120.181 158.055 120.237 157.931 120.237 157.793V157.786C120.235 157.688 120.206 157.594 120.152 157.512C120.099 157.431 120.023 157.367 119.935 157.326Z" fill="#DC8327"/>
<path d="M141.071 157.326L141.069 157.325L141.067 157.325H141.065L141.065 157.324L141.064 157.323H141.063L141.062 157.322L141.062 157.321C141.062 157.321 141.061 157.321 141.06 157.321L141.059 157.32H141.058C141.058 157.32 141.058 157.319 141.058 157.319C141.056 157.32 141.056 157.318 141.056 157.318L141.055 157.318L141.054 157.317H141.053L141.052 157.316L141.051 157.315L141.05 157.314C141.049 157.315 141.049 157.314 141.048 157.314L141.047 157.313L141.046 157.312L141.044 157.311C141.044 157.311 141.042 157.311 141.041 157.311L141.038 157.31L141.037 157.309L141.035 157.308L141.033 157.307L141.032 157.307C141.029 157.307 141.031 157.307 141.03 157.306L141.028 157.305L141.028 157.304H141.027C140.979 157.287 140.929 157.277 140.878 157.275H140.872L140.871 157.274H140.855C139.547 157.274 138.476 156.209 138.468 154.903V134.25H140.507C140.628 134.256 140.747 134.219 140.843 134.145C140.939 134.071 141.005 133.966 141.031 133.848C141.057 133.73 141.04 133.606 140.983 133.499C140.927 133.392 140.834 133.309 140.722 133.264L130.935 126.51C130.85 126.451 130.748 126.419 130.644 126.419C130.54 126.419 130.438 126.451 130.353 126.51L120.494 133.316C120.405 133.378 120.337 133.468 120.302 133.571C120.267 133.674 120.265 133.786 120.297 133.89C120.33 133.994 120.395 134.085 120.482 134.15C120.57 134.215 120.676 134.25 120.785 134.25H122.815L122.817 154.911C122.825 156.752 124.306 158.254 126.188 158.301C126.208 158.304 126.228 158.304 126.249 158.304H140.867C141.002 158.302 141.123 158.248 141.214 158.162L141.214 158.161C141.216 158.159 141.219 158.158 141.218 158.157C141.219 158.156 141.22 158.156 141.221 158.155L141.221 158.154L141.222 158.153L141.223 158.152C141.223 158.152 141.224 158.152 141.224 158.152L141.224 158.151C141.225 158.151 141.225 158.15 141.225 158.15C141.228 158.149 141.227 158.149 141.227 158.148L141.228 158.148L141.228 158.147L141.229 158.146C141.318 158.054 141.373 157.93 141.374 157.793V157.785C141.371 157.688 141.341 157.593 141.288 157.512C141.234 157.431 141.159 157.367 141.071 157.326Z" fill="#F4B21B"/>
<path d="M162.262 157.326L162.26 157.325L162.258 157.325H162.257L162.256 157.324L162.255 157.323C162.255 157.323 162.255 157.323 162.255 157.322H162.254L162.253 157.321L162.252 157.321C162.252 157.321 162.251 157.321 162.251 157.32H162.251L162.25 157.319C162.249 157.32 162.249 157.318 162.248 157.318C162.249 157.317 162.248 157.317 162.247 157.317L162.246 157.317H162.245L162.244 157.316L162.244 157.315L162.242 157.314C162.241 157.315 162.241 157.314 162.24 157.314L162.239 157.313C162.24 157.312 162.238 157.312 162.237 157.312C162.237 157.312 162.237 157.312 162.237 157.311C162.236 157.31 162.234 157.31 162.234 157.31L162.23 157.31L162.228 157.309L162.227 157.308L162.225 157.307L162.224 157.307C162.221 157.307 162.221 157.307 162.222 157.306C162.221 157.306 162.221 157.305 162.221 157.305L162.22 157.304H162.219C162.171 157.287 162.121 157.277 162.071 157.275H162.063L162.062 157.274H162.053H162.048H162.051H162.05C160.741 157.274 159.671 156.209 159.662 154.903V140.207H161.707C161.995 140.201 162.229 139.982 162.229 139.696C162.229 139.481 162.098 139.298 161.912 139.221L152.125 132.467C152.039 132.408 151.938 132.376 151.834 132.376C151.73 132.376 151.628 132.408 151.543 132.467L141.68 139.273C141.591 139.336 141.523 139.425 141.488 139.528C141.453 139.631 141.451 139.743 141.483 139.847C141.516 139.951 141.581 140.042 141.668 140.107C141.756 140.172 141.862 140.207 141.971 140.208H144.005L144.007 154.91C144.017 156.751 145.496 158.255 147.377 158.301C147.398 158.303 147.418 158.304 147.439 158.304H162.057C162.191 158.302 162.313 158.248 162.403 158.162L162.404 158.161C162.406 158.159 162.408 158.158 162.408 158.157C162.409 158.156 162.41 158.156 162.41 158.155L162.411 158.154L162.412 158.153L162.413 158.152L162.414 158.151L162.414 158.151L162.415 158.15C162.418 158.149 162.416 158.149 162.417 158.148L162.418 158.148L162.418 158.147L162.419 158.146C162.508 158.054 162.563 157.93 162.564 157.792V157.785C162.562 157.688 162.532 157.593 162.479 157.512C162.425 157.431 162.35 157.366 162.262 157.326Z" fill="#F2D864"/>
<defs>
<filter id="filter0_d_25_410" x="0.932861" y="0" width="260" height="260" filterUnits="userSpaceOnUse" color-interpolation-filters="sRGB">
<feFlood flood-opacity="0" result="BackgroundImageFix"/>
<feColorMatrix in="SourceAlpha" type="matrix" values="0 0 0 0 0 0 0 0 0 0 0 0 0 0 0 0 0 0 127 0" result="hardAlpha"/>
<feOffset dy="4"/>
<feGaussianBlur stdDeviation="20"/>
<feComposite in2="hardAlpha" operator="out"/>
<feColorMatrix type="matrix" values="0 0 0 0 0.0367917 0 0 0 0 0.0348958 0 0 0 0 0.0484375 0 0 0 0.1 0"/>
<feBlend mode="normal" in2="BackgroundImageFix" result="effect1_dropShadow_25_410"/>
<feBlend mode="normal" in="SourceGraphic" in2="effect1_dropShadow_25_410" result="shape"/>
</filter>
</defs>
</svg>
