<svg width="261" height="261" viewBox="0 0 261 261" fill="none" xmlns="http://www.w3.org/2000/svg">
<g filter="url(#filter0_d_22_677)">
<rect x="40.209" y="36.4058" width="180" height="180" rx="32" fill="white"/>
<rect x="40.709" y="36.9058" width="179" height="179" rx="31.5" stroke="#D9D9D9"/>
</g>
<path d="M159.981 85.3035C157.548 88.1354 156.412 94.5177 158.882 100.98C161.347 107.447 165.132 106.043 167.49 112.636C170.603 121.334 169.152 133.023 169.152 133.023C169.152 133.023 172.895 143.858 175.501 132.347C181.268 110.734 159.981 90.6291 159.981 85.3035Z" fill="url(#paint0_radial_22_677)"/>
<path d="M130.284 175.056C155.205 175.056 175.393 154.754 175.393 129.727C175.393 104.7 155.205 84.3972 130.307 84.3972C105.409 84.3972 85.2215 104.695 85.2215 129.727C85.1746 154.782 105.386 175.056 130.284 175.056Z" fill="url(#paint1_radial_22_677)"/>
<path d="M164.085 157.675C163.108 158.365 162.085 158.98 161.023 159.52C162.432 157.459 163.733 155.322 164.916 153.119C165.879 152.053 166.757 151.02 167.475 149.902C167.823 149.353 168.217 148.676 168.635 147.887C171.166 143.322 173.961 135.94 174.04 128.355V128.336C174.04 128.149 174.045 127.961 174.04 127.778C174.054 125.875 173.857 123.973 173.458 122.114C173.477 122.259 173.496 122.405 173.514 122.55C173.491 122.438 173.472 122.325 173.449 122.212C173.486 122.419 173.514 122.621 173.547 122.818C174.064 127.209 173.698 131.497 171.852 134.653C171.824 134.7 171.791 134.742 171.763 134.789C172.721 129.989 173.04 124.687 171.974 119.38C171.974 119.38 171.547 116.802 168.377 108.969C166.555 104.46 163.315 100.764 160.45 98.073C157.943 94.9687 155.66 92.8835 154.407 91.5638C151.782 88.8023 150.683 86.7312 150.232 85.3787C149.842 85.1814 144.832 80.316 144.432 80.1328C142.244 83.5236 135.369 94.1233 138.642 104.033C140.126 108.522 143.874 113.181 147.795 115.797C147.969 115.994 150.129 118.342 151.157 123.64C152.218 129.111 151.66 133.38 149.476 139.697C146.907 145.239 140.324 150.715 134.158 151.273C120.981 152.471 116.154 144.656 116.154 144.656C120.864 146.54 126.067 146.145 129.236 144.191C132.43 142.219 134.36 140.754 135.923 141.331C137.468 141.904 138.699 140.237 137.595 138.509C135.853 135.827 132.679 134.442 129.528 134.996C126.334 135.517 123.409 138.044 119.22 135.597C118.948 135.442 118.685 135.268 118.436 135.08C118.159 134.897 119.333 135.357 119.06 135.151C118.248 134.709 116.806 133.742 116.431 133.399C116.37 133.343 117.065 133.62 116.999 133.563C113.087 130.342 113.575 128.163 113.698 126.796C113.796 125.702 114.505 124.302 115.703 123.734C116.28 124.049 116.642 124.293 116.642 124.293C116.642 124.293 116.393 123.79 116.262 123.523C116.309 123.504 116.351 123.509 116.398 123.49C116.872 123.72 117.919 124.312 118.473 124.673C119.192 125.18 119.422 125.631 119.422 125.631C119.422 125.631 119.61 125.528 119.469 125.086C119.417 124.903 119.201 124.33 118.487 123.748L118.53 123.753C118.957 123.997 119.361 124.274 119.737 124.589C119.938 123.861 120.3 123.095 120.22 121.733C120.173 120.775 120.192 120.526 120.023 120.155C119.873 119.836 120.108 119.714 120.371 120.043C120.324 119.784 120.248 119.531 120.145 119.291V119.268C120.474 118.126 127.081 115.154 127.56 114.806C128.349 114.247 129.011 113.529 129.504 112.693C129.87 112.106 130.147 111.284 130.213 110.039C130.251 109.142 129.833 108.541 123.151 107.841C121.324 107.663 120.253 106.339 119.643 105.118C119.53 104.855 119.417 104.615 119.305 104.375C119.197 104.098 119.107 103.812 119.046 103.521C120.14 100.384 121.972 97.7301 124.672 95.7248C124.818 95.5886 124.085 95.7576 124.231 95.6261C124.404 95.4712 125.522 95.0203 125.733 94.917C125.992 94.7949 124.63 94.2172 123.423 94.3581C122.197 94.4943 121.934 94.6446 121.282 94.9217C121.554 94.6493 122.418 94.2971 122.216 94.2971C120.892 94.499 119.253 95.2692 117.844 96.138C117.839 95.9878 117.872 95.8375 117.929 95.6966C117.276 95.9737 115.665 97.0961 115.2 98.0495C115.219 97.8663 115.228 97.6832 115.228 97.5C114.731 97.918 114.28 98.3876 113.885 98.9042L113.862 98.9277C110.068 97.3967 106.724 97.2981 103.897 97.9837C103.277 97.3638 102.977 97.8147 101.568 94.7244C101.474 94.5366 101.643 94.9076 101.568 94.7244C101.338 94.1233 101.709 95.5228 101.568 94.7244C99.2012 96.5936 96.0878 98.707 94.5945 100.2C94.5757 100.261 96.3367 99.7026 94.5945 100.2C93.9841 100.374 94.0263 100.736 93.9324 104.014C93.9089 104.263 93.9277 104.54 93.9089 104.765C92.7161 106.287 91.9038 107.574 91.5938 108.241C90.0489 110.903 88.3489 115.05 86.7007 121.611C87.4285 119.831 88.302 118.117 89.321 116.487C87.9498 119.972 86.6255 125.439 86.3625 133.859C86.696 132.122 87.1186 130.403 87.6351 128.712C87.3111 135.7 88.518 142.674 91.1665 149.146C92.1151 151.466 93.6835 154.984 96.3508 158.844C104.738 167.668 116.567 173.163 129.668 173.163C143.362 173.163 155.646 167.18 164.085 157.675Z" fill="url(#paint2_linear_22_677)"/>
<path d="M153.965 164.085C170.518 162.169 177.844 145.112 168.433 144.774C159.934 144.506 146.123 164.992 153.965 164.085Z" fill="url(#paint3_radial_22_677)"/>
<path d="M169.626 141.294C181.014 134.667 178.046 120.348 178.046 120.348C178.046 120.348 173.651 125.453 170.664 133.592C167.715 141.651 162.78 145.295 169.626 141.294Z" fill="url(#paint4_radial_22_677)"/>
<path d="M133.472 172.557C149.349 177.624 162.996 165.113 154.585 160.938C146.935 157.172 125.94 170.162 133.472 172.557Z" fill="url(#paint5_radial_22_677)"/>
<path d="M170.81 147.371C171.195 146.826 171.716 145.079 172.181 144.299C174.984 139.772 175.003 136.165 175.003 136.085C176.698 127.627 176.543 124.175 175.501 117.788C174.66 112.646 170.997 105.277 167.823 101.731C164.55 98.0777 166.856 99.2659 163.686 96.5983C160.911 93.5175 158.215 90.4696 156.75 89.2438C146.151 80.3818 146.391 78.4985 146.593 78.1792C146.56 78.2167 146.508 78.2731 146.442 78.3482C146.316 77.8457 146.226 77.4277 146.226 77.4277C146.226 77.4277 140.432 83.2231 139.215 92.8741C138.417 99.1767 140.779 105.747 144.193 109.95C145.973 112.125 147.983 114.102 150.19 115.844V115.839C152.772 119.545 154.191 124.119 154.191 129.041C154.191 141.364 144.198 151.353 131.871 151.353C130.19 151.353 128.518 151.166 126.879 150.795C121.061 149.686 117.703 146.751 116.027 144.76C115.069 143.618 114.66 142.787 114.66 142.787C119.873 144.656 125.635 144.262 129.138 142.327C132.669 140.369 134.806 138.917 136.539 139.49C138.248 140.059 139.61 138.405 138.389 136.691C137.191 134.977 134.078 132.526 129.457 133.207C125.921 133.723 122.681 136.231 118.051 133.798C117.75 133.643 117.464 133.474 117.182 133.286C116.877 133.108 118.173 133.559 117.872 133.357C116.971 132.92 115.374 131.962 114.961 131.624C114.89 131.568 115.66 131.845 115.59 131.788C111.26 128.59 111.8 126.434 111.937 125.077C112.045 123.992 112.834 122.607 114.158 122.043C114.796 122.358 115.196 122.597 115.196 122.597C115.196 122.597 114.923 122.1 114.773 121.832C114.825 121.813 114.876 121.818 114.923 121.799C115.449 122.025 116.609 122.616 117.22 122.973C118.013 123.476 118.267 123.927 118.267 123.927C118.267 123.927 118.478 123.823 118.323 123.386C118.267 123.208 118.027 122.635 117.238 122.057L117.285 122.062C117.755 122.302 118.201 122.579 118.619 122.893C118.84 122.17 119.239 121.414 119.154 120.061C119.103 119.113 119.126 118.864 118.938 118.498C118.769 118.183 119.032 118.061 119.323 118.385C119.272 118.127 119.192 117.878 119.074 117.638L119.079 117.615C119.441 116.483 126.757 113.538 127.288 113.191C128.147 112.651 128.88 111.937 129.438 111.096C129.847 110.514 130.152 109.701 130.227 108.466C130.251 107.907 130.082 107.47 128.142 107.048C126.978 106.794 125.179 106.55 122.409 106.287C120.385 106.109 119.201 104.794 118.525 103.582C118.403 103.319 118.276 103.084 118.149 102.849C118.032 102.572 117.933 102.29 117.863 101.999C119.079 98.8244 121.258 96.1193 124.099 94.2642C124.263 94.1327 123.446 94.2971 123.611 94.1656C123.799 94.0106 125.038 93.5645 125.273 93.4612C125.56 93.3391 124.047 92.7661 122.718 92.907C121.361 93.0432 121.075 93.1888 120.347 93.4659C120.648 93.1982 121.606 92.8459 121.38 92.8506C119.915 93.0526 118.098 93.8134 116.543 94.6775C116.539 94.5272 116.571 94.377 116.637 94.2408C115.914 94.5178 114.134 95.6309 113.618 96.5749C113.641 96.3964 113.651 96.2132 113.646 96.0301C113.101 96.4387 112.603 96.9036 112.162 97.4202L112.134 97.4437C107.931 95.9268 104.235 95.8281 101.103 96.5091C100.417 95.8939 99.3186 94.9593 97.7596 91.8973C97.6516 91.7141 97.5952 92.2777 97.5154 92.0945C96.9096 90.6903 96.5433 88.3891 96.6044 86.8064C96.6044 86.8064 95.3506 87.3747 94.3174 89.7604C94.1249 90.1878 94.0028 90.4273 93.8807 90.6621C93.8244 90.7326 94.0075 89.8778 93.9793 89.9248C93.8009 90.2301 93.3313 90.6574 93.1294 91.2069C92.9885 91.6155 92.7913 91.8456 92.6645 92.3528L92.6363 92.3998C92.6269 92.2495 92.6739 91.7799 92.641 91.8785C92.1573 92.86 91.7394 93.8744 91.3919 94.9123C90.8331 96.7486 90.185 99.2424 90.0817 102.492C90.0582 102.737 90.077 103.014 90.0582 103.234C88.7387 104.742 87.8371 106.019 87.4989 106.681C85.7849 109.311 83.9019 113.425 82.0751 119.93C82.8875 118.155 83.8596 116.45 84.9772 114.848C83.4604 118.3 81.9953 123.725 81.6995 132.079C82.0657 130.351 82.54 128.646 83.1082 126.975C82.8453 132.544 83.4933 139.448 87.0153 147.239C89.105 151.823 93.9183 161.127 105.677 168.387C117.436 175.648 109.678 171.365 116.553 173.595C117.06 173.779 117.576 173.962 118.102 174.136C117.943 174.07 117.783 173.999 117.623 173.929C122.202 175.3 126.95 176 131.73 176C149.532 176.014 154.782 168.866 154.782 168.866C154.782 168.866 154.764 168.88 154.731 168.904C154.98 168.669 155.224 168.42 155.459 168.166C152.65 170.82 146.24 170.994 143.841 170.806C147.926 169.604 150.617 168.589 155.848 166.584C156.459 166.358 157.088 166.1 157.727 165.809C157.797 165.781 157.868 165.743 157.933 165.715C158.06 165.654 158.187 165.602 158.314 165.536C160.864 164.334 163.259 162.836 165.456 161.065C170.711 156.867 171.852 152.776 172.453 150.081C172.369 150.339 172.11 150.94 171.927 151.335C170.575 154.228 167.574 156.007 164.315 157.529C165.865 155.496 167.302 153.378 168.621 151.184C169.683 150.132 170.016 148.479 170.81 147.371Z" fill="url(#paint6_radial_22_677)"/>
<path d="M164.414 157.407C166.555 155.045 168.481 152.344 169.936 149.277C173.688 141.392 179.483 128.28 174.919 114.59C171.307 103.77 166.353 97.8522 160.065 92.071C149.847 82.6829 146.992 78.4938 146.992 76C146.992 76 135.196 89.1545 140.31 102.868C145.423 116.581 155.905 116.084 162.836 130.398C170.993 147.244 156.233 165.626 144.029 170.773C144.775 170.608 171.157 164.635 172.547 149.545C172.519 149.822 171.923 153.993 164.414 157.407Z" fill="url(#paint7_radial_22_677)"/>
<path d="M130.232 108.457C130.274 107.564 129.809 106.968 122.441 106.277C119.408 105.996 118.248 103.197 117.896 102.013C116.816 104.817 116.374 107.752 116.614 111.312C116.778 113.641 118.342 116.14 119.088 117.61C119.088 117.61 119.253 117.394 119.333 117.314C120.741 115.849 126.644 113.613 127.198 113.294C127.804 112.909 130.133 111.209 130.232 108.457Z" fill="url(#paint8_linear_22_677)"/>
<path d="M97.7877 91.9019C97.6797 91.7188 97.6233 92.2823 97.5435 92.0992C96.9377 90.6949 96.5715 88.4219 96.656 86.811C96.656 86.811 95.4022 87.3793 94.3691 89.7651C94.1765 90.1924 94.0544 90.4319 93.9323 90.6668C93.876 90.7372 94.0591 89.8825 94.031 89.9294C93.8525 90.2347 93.3829 90.6621 93.181 91.1881C93.0119 91.6201 92.8429 91.8503 92.7114 92.3856C92.6738 92.5312 92.749 91.7422 92.7161 91.8409C90.3071 96.4997 89.8469 103.54 90.1004 103.244C95.2284 97.7677 101.108 96.4668 101.108 96.4668C100.488 96.0019 99.126 94.6728 97.7877 91.9019Z" fill="url(#paint9_linear_22_677)"/>
<path d="M117.252 149.188C110.166 146.164 102.113 141.895 102.413 132.201C102.826 119.437 114.317 121.959 114.317 121.959C113.885 122.062 112.725 122.889 112.312 123.771C111.88 124.87 111.087 127.355 113.486 129.961C117.257 134.047 105.743 139.655 123.512 150.245C123.963 150.484 119.351 150.095 117.252 149.188Z" fill="url(#paint10_linear_22_677)"/>
<path d="M114.735 142.824C119.76 144.571 125.611 144.266 129.119 142.331C131.467 141.025 134.472 138.931 136.327 139.448C134.726 138.814 133.51 138.518 132.049 138.447C131.8 138.447 131.505 138.443 131.232 138.414C130.697 138.414 130.162 138.443 129.631 138.504C128.725 138.588 127.724 139.156 126.813 139.067C126.766 139.062 127.696 138.682 127.621 138.701C127.137 138.8 126.611 138.823 126.057 138.893C125.705 138.931 125.4 138.978 125.052 138.992C114.585 139.88 105.743 133.319 105.743 133.319C104.987 135.85 109.11 140.866 114.735 142.824Z" fill="url(#paint11_linear_22_677)"/>
<path d="M164.395 157.473C174.98 147.08 180.338 134.446 178.07 120.273C178.07 120.273 178.976 127.538 175.543 134.972C177.191 127.716 177.384 118.699 173.007 109.363C167.166 96.8988 157.558 90.3427 153.886 87.6047C148.33 83.4578 146.024 79.2405 145.982 78.3669C144.32 81.7671 139.3 93.4282 145.442 103.469C151.199 112.876 160.267 115.67 166.612 124.298C178.309 140.199 164.395 157.473 164.395 157.473Z" fill="url(#paint12_linear_22_677)"/>
<path d="M162.878 130.431C159.178 122.79 154.561 119.456 150.194 115.839C150.701 116.549 150.828 116.802 151.11 117.262C154.956 121.358 160.624 131.356 156.506 143.9C148.757 167.518 117.774 156.397 114.524 153.274C115.839 166.941 138.713 173.483 153.608 164.621C162.084 156.594 168.94 142.956 162.878 130.431Z" fill="url(#paint13_linear_22_677)"/>
<defs>
<filter id="filter0_d_22_677" x="0.208984" y="0.405762" width="260" height="260" filterUnits="userSpaceOnUse" color-interpolation-filters="sRGB">
<feFlood flood-opacity="0" result="BackgroundImageFix"/>
<feColorMatrix in="SourceAlpha" type="matrix" values="0 0 0 0 0 0 0 0 0 0 0 0 0 0 0 0 0 0 127 0" result="hardAlpha"/>
<feOffset dy="4"/>
<feGaussianBlur stdDeviation="20"/>
<feComposite in2="hardAlpha" operator="out"/>
<feColorMatrix type="matrix" values="0 0 0 0 0.0367917 0 0 0 0 0.0348958 0 0 0 0 0.0484375 0 0 0 0.1 0"/>
<feBlend mode="normal" in2="BackgroundImageFix" result="effect1_dropShadow_22_677"/>
<feBlend mode="normal" in="SourceGraphic" in2="effect1_dropShadow_22_677" result="shape"/>
</filter>
<radialGradient id="paint0_radial_22_677" cx="0" cy="0" r="1" gradientUnits="userSpaceOnUse" gradientTransform="translate(174.011 101.007) rotate(2.55508) scale(34.9488 51.3744)">
<stop offset="0.045" stop-color="#FFEA00"/>
<stop offset="0.12" stop-color="#FFDE00"/>
<stop offset="0.254" stop-color="#FFBF00"/>
<stop offset="0.429" stop-color="#FF8E00"/>
<stop offset="0.769" stop-color="#FF272D"/>
<stop offset="0.872" stop-color="#E0255A"/>
<stop offset="0.953" stop-color="#CC2477"/>
<stop offset="1" stop-color="#C42482"/>
</radialGradient>
<radialGradient id="paint1_radial_22_677" cx="0" cy="0" r="1" gradientUnits="userSpaceOnUse" gradientTransform="translate(149.089 95.6271) scale(98.5004 98.5095)">
<stop stop-color="#00CCDA"/>
<stop offset="0.22" stop-color="#0083FF"/>
<stop offset="0.261" stop-color="#007AF9"/>
<stop offset="0.33" stop-color="#0060E8"/>
<stop offset="0.333" stop-color="#005FE7"/>
<stop offset="0.438" stop-color="#2639AD"/>
<stop offset="0.522" stop-color="#401E84"/>
<stop offset="0.566" stop-color="#4A1475"/>
</radialGradient>
<linearGradient id="paint2_linear_22_677" x1="136.643" y1="150.109" x2="117.185" y2="86.464" gradientUnits="userSpaceOnUse">
<stop stop-color="#000F43" stop-opacity="0.4"/>
<stop offset="0.485" stop-color="#001962" stop-opacity="0.173"/>
<stop offset="1" stop-color="#002079" stop-opacity="0"/>
</linearGradient>
<radialGradient id="paint3_radial_22_677" cx="0" cy="0" r="1" gradientUnits="userSpaceOnUse" gradientTransform="translate(163.833 127.412) rotate(5.67027) scale(33.224 33.2271)">
<stop offset="0.003" stop-color="#FFEA00"/>
<stop offset="0.497" stop-color="#FF272D"/>
<stop offset="1" stop-color="#C42482"/>
</radialGradient>
<radialGradient id="paint4_radial_22_677" cx="0" cy="0" r="1" gradientUnits="userSpaceOnUse" gradientTransform="translate(163.99 95.4099) rotate(5.67019) scale(55.4822 55.4867)">
<stop offset="0.003" stop-color="#FFE900"/>
<stop offset="0.157" stop-color="#FFAF0E"/>
<stop offset="0.316" stop-color="#FF7A1B"/>
<stop offset="0.472" stop-color="#FF4E26"/>
<stop offset="0.621" stop-color="#FF2C2E"/>
<stop offset="0.762" stop-color="#FF1434"/>
<stop offset="0.892" stop-color="#FF0538"/>
<stop offset="1" stop-color="#FF0039"/>
</radialGradient>
<radialGradient id="paint5_radial_22_677" cx="0" cy="0" r="1" gradientUnits="userSpaceOnUse" gradientTransform="translate(166.717 147.369) rotate(5.67019) scale(50.9105 50.9145)">
<stop offset="0.003" stop-color="#FF272D"/>
<stop offset="0.497" stop-color="#C42482"/>
<stop offset="0.986" stop-color="#620700"/>
</radialGradient>
<radialGradient id="paint6_radial_22_677" cx="0" cy="0" r="1" gradientUnits="userSpaceOnUse" gradientTransform="translate(154.38 116.046) scale(79.4889 79.4963)">
<stop offset="0.156" stop-color="#FFEA00"/>
<stop offset="0.231" stop-color="#FFDE00"/>
<stop offset="0.365" stop-color="#FFBF00"/>
<stop offset="0.541" stop-color="#FF8E00"/>
<stop offset="0.763" stop-color="#FF272D"/>
<stop offset="0.796" stop-color="#F92433"/>
<stop offset="0.841" stop-color="#E91C45"/>
<stop offset="0.893" stop-color="#CF0E62"/>
<stop offset="0.935" stop-color="#B5007F"/>
</radialGradient>
<radialGradient id="paint7_radial_22_677" cx="0" cy="0" r="1" gradientUnits="userSpaceOnUse" gradientTransform="translate(148.4 76.1291) scale(93.8623 93.8709)">
<stop offset="0.279" stop-color="#FFEA00"/>
<stop offset="0.402" stop-color="#FFDD00"/>
<stop offset="0.63" stop-color="#FFBA00"/>
<stop offset="0.856" stop-color="#FF9100"/>
<stop offset="0.933" stop-color="#FF6711"/>
<stop offset="0.994" stop-color="#FF4A1D"/>
</radialGradient>
<linearGradient id="paint8_linear_22_677" x1="83.562" y1="115.133" x2="119.68" y2="109.651" gradientUnits="userSpaceOnUse">
<stop stop-color="#C42482" stop-opacity="0.5"/>
<stop offset="0.474" stop-color="#FF272D" stop-opacity="0.5"/>
<stop offset="0.486" stop-color="#FF2C2C" stop-opacity="0.513"/>
<stop offset="0.675" stop-color="#FF7A1A" stop-opacity="0.72"/>
<stop offset="0.829" stop-color="#FFB20D" stop-opacity="0.871"/>
<stop offset="0.942" stop-color="#FFD605" stop-opacity="0.964"/>
<stop offset="1" stop-color="#FFE302"/>
</linearGradient>
<linearGradient id="paint9_linear_22_677" x1="96.254" y1="102.204" x2="92.1542" y2="87.5083" gradientUnits="userSpaceOnUse">
<stop stop-color="#891551" stop-opacity="0.6"/>
<stop offset="1" stop-color="#C42482" stop-opacity="0"/>
</linearGradient>
<linearGradient id="paint10_linear_22_677" x1="104.11" y1="123.674" x2="112.542" y2="135.438" gradientUnits="userSpaceOnUse">
<stop offset="0.005" stop-color="#891551" stop-opacity="0.5"/>
<stop offset="0.484" stop-color="#FF272D" stop-opacity="0.5"/>
<stop offset="1" stop-color="#FF272D" stop-opacity="0"/>
</linearGradient>
<linearGradient id="paint11_linear_22_677" x1="120.214" y1="144.298" x2="120.979" y2="136.737" gradientUnits="userSpaceOnUse">
<stop stop-color="#C42482"/>
<stop offset="0.083" stop-color="#C42482" stop-opacity="0.81"/>
<stop offset="0.206" stop-color="#C42482" stop-opacity="0.565"/>
<stop offset="0.328" stop-color="#C42482" stop-opacity="0.362"/>
<stop offset="0.447" stop-color="#C42482" stop-opacity="0.204"/>
<stop offset="0.562" stop-color="#C42482" stop-opacity="0.091"/>
<stop offset="0.673" stop-color="#C42482" stop-opacity="0.023"/>
<stop offset="0.773" stop-color="#C42482" stop-opacity="0"/>
</linearGradient>
<linearGradient id="paint12_linear_22_677" x1="144.761" y1="79.6691" x2="175.828" y2="149.134" gradientUnits="userSpaceOnUse">
<stop stop-color="#FFF14F"/>
<stop offset="0.268" stop-color="#FFEE4C"/>
<stop offset="0.452" stop-color="#FFE643"/>
<stop offset="0.612" stop-color="#FFD834"/>
<stop offset="0.757" stop-color="#FFC41E"/>
<stop offset="0.892" stop-color="#FFAB02"/>
<stop offset="0.902" stop-color="#FFA900"/>
<stop offset="0.949" stop-color="#FFA000"/>
<stop offset="1" stop-color="#FF9100"/>
</linearGradient>
<linearGradient id="paint13_linear_22_677" x1="150.894" y1="119.621" x2="136.178" y2="159.13" gradientUnits="userSpaceOnUse">
<stop stop-color="#FF8E00"/>
<stop offset="0.04" stop-color="#FF8E00" stop-opacity="0.858"/>
<stop offset="0.084" stop-color="#FF8E00" stop-opacity="0.729"/>
<stop offset="0.13" stop-color="#FF8E00" stop-opacity="0.628"/>
<stop offset="0.178" stop-color="#FF8E00" stop-opacity="0.557"/>
<stop offset="0.227" stop-color="#FF8E00" stop-opacity="0.514"/>
<stop offset="0.282" stop-color="#FF8E00" stop-opacity="0.5"/>
<stop offset="0.389" stop-color="#FF8E00" stop-opacity="0.478"/>
<stop offset="0.524" stop-color="#FF8E00" stop-opacity="0.416"/>
<stop offset="0.676" stop-color="#FF8E00" stop-opacity="0.314"/>
<stop offset="0.838" stop-color="#FF8E00" stop-opacity="0.172"/>
<stop offset="1" stop-color="#FF8E00" stop-opacity="0"/>
</linearGradient>
</defs>
</svg>
