<svg width="10" height="10" viewBox="0 0 10 10" fill="none" xmlns="http://www.w3.org/2000/svg">
<g clip-path="url(#clip0_66_31)">
<path d="M4.19596 8.54285C4.19595 8.48174 4.1825 8.42139 4.15657 8.36606C4.13063 8.31073 4.09285 8.26178 4.04588 8.22268C3.99892 8.18358 3.94394 8.15529 3.88482 8.13981C3.82571 8.12433 3.76391 8.12204 3.70382 8.1331C3.15837 8.2332 2.46969 8.24825 2.28658 7.73393C2.12692 7.3356 1.86244 6.9879 1.5212 6.72768C1.49685 6.71444 1.47365 6.6992 1.45182 6.68211C1.42196 6.60333 1.36891 6.53545 1.29968 6.48744C1.23046 6.43942 1.1483 6.41352 1.06405 6.41315H1.06201C0.951845 6.41311 0.846149 6.45671 0.768059 6.53442C0.689969 6.61213 0.645845 6.71761 0.645346 6.82778C0.643717 7.16754 0.983262 7.38523 1.12101 7.45888C1.28345 7.62209 1.41399 7.81418 1.50594 8.02529C1.65772 8.45172 2.0988 9.09869 3.3667 9.01529C3.36712 9.02994 3.36751 9.04377 3.36772 9.05638L3.36955 9.16788C3.36955 9.27838 3.41344 9.38436 3.49158 9.4625C3.56972 9.54064 3.67571 9.58454 3.78621 9.58454C3.89672 9.58454 4.0027 9.54064 4.08084 9.4625C4.15898 9.38436 4.20288 9.27838 4.20288 9.16788L4.20085 9.03523C4.19881 8.95626 4.19596 8.84192 4.19596 8.54285ZM8.64055 2.24035C8.65377 2.18827 8.6668 2.13049 8.67819 2.06538C8.74557 1.60105 8.68683 1.12713 8.5081 0.6933C8.48555 0.636743 8.4509 0.585803 8.40658 0.544052C8.36226 0.5023 8.30935 0.470747 8.25155 0.451604C8.10322 0.401554 7.55555 0.303084 6.50818 0.972438C5.63757 0.76756 4.73129 0.76756 3.86068 0.972438C2.81759 0.312888 2.27275 0.402388 2.12585 0.449588C2.06663 0.467955 2.01227 0.499341 1.96675 0.541445C1.92123 0.58355 1.88571 0.635306 1.86279 0.692921C1.68042 1.13508 1.62231 1.61866 1.69474 2.09144C1.70492 2.14474 1.7159 2.19398 1.7273 2.23914C1.38212 2.69891 1.19826 3.25971 1.20423 3.8346C1.2031 3.96287 1.20901 4.0911 1.22192 4.21871C1.36109 6.13644 2.61109 6.7122 3.48205 6.90996C3.46395 6.96205 3.44747 7.01779 3.43282 7.07679C3.40671 7.184 3.42418 7.29718 3.4814 7.39153C3.53862 7.48587 3.63092 7.55368 3.73806 7.58007C3.8452 7.60646 3.95843 7.58929 4.05292 7.53232C4.14742 7.47536 4.21547 7.38324 4.24215 7.27617C4.26866 7.13734 4.33661 7.0098 4.43705 6.91037C4.49779 6.8572 4.54176 6.78752 4.56362 6.70982C4.58548 6.63212 4.58429 6.54974 4.56019 6.47271C4.53609 6.39567 4.49013 6.3273 4.42788 6.2759C4.36564 6.22451 4.2898 6.19232 4.2096 6.18323C2.77039 6.01885 2.14559 5.4325 2.0516 4.14222C2.04118 4.04002 2.0365 3.93733 2.03756 3.8346C2.03087 3.42488 2.16624 3.02547 2.42065 2.70423C2.44622 2.67074 2.47345 2.63856 2.50224 2.6078C2.55325 2.55071 2.58755 2.48068 2.60137 2.40538C2.61519 2.33008 2.60799 2.25243 2.58057 2.18096C2.55246 2.10576 2.53082 2.02831 2.51587 1.94943C2.48193 1.72514 2.49306 1.49634 2.54862 1.27641C2.91076 1.37869 3.25159 1.54518 3.55487 1.76795C3.60503 1.80135 3.66178 1.82358 3.72128 1.83313C3.78078 1.84268 3.84164 1.83932 3.89972 1.82329C4.74185 1.59475 5.62969 1.59489 6.47175 1.8237C6.53015 1.83972 6.59133 1.84289 6.65107 1.83298C6.71082 1.82308 6.7677 1.80034 6.81781 1.76633C7.11968 1.54264 7.45908 1.37467 7.82001 1.27032C7.87533 1.48497 7.8877 1.70843 7.85643 1.92787C7.84134 2.01434 7.81776 2.09912 7.78603 2.18097C7.75861 2.25244 7.75142 2.33009 7.76524 2.40539C7.77906 2.48069 7.81335 2.55072 7.86437 2.6078C7.89651 2.64402 7.92866 2.68308 7.95755 2.7197C8.21016 3.0355 8.34324 3.43031 8.33333 3.8346C8.33409 3.94277 8.32886 4.0509 8.31767 4.15849C8.22591 5.43168 7.59867 6.01844 6.15275 6.18323C6.07252 6.19237 5.99668 6.22462 5.93444 6.27606C5.87221 6.3275 5.82626 6.39592 5.80218 6.47299C5.77811 6.55006 5.77695 6.63247 5.79884 6.71019C5.82073 6.78791 5.86473 6.8576 5.9255 6.91077C6.02909 7.01286 6.0972 7.14551 6.11979 7.28919C6.14795 7.40073 6.16088 7.51557 6.15825 7.63058V8.60308C6.15417 8.87285 6.15417 9.07508 6.15417 9.16785C6.15417 9.27836 6.19807 9.38434 6.27621 9.46248C6.35435 9.54062 6.46033 9.58452 6.57083 9.58452C6.68134 9.58452 6.78732 9.54062 6.86546 9.46248C6.9436 9.38434 6.9875 9.27836 6.9875 9.16785C6.9875 9.07752 6.9875 8.87936 6.99157 8.60958V7.63058C6.99493 7.44634 6.97323 7.2625 6.92708 7.08411C6.91388 7.02555 6.89772 6.9677 6.87865 6.91078C7.51251 6.80548 8.08843 6.47867 8.50391 5.98853C8.91939 5.49839 9.14746 4.87672 9.14753 4.23418C9.16126 4.10144 9.16765 3.96804 9.16667 3.8346C9.17591 3.25909 8.99052 2.69732 8.64054 2.24036L8.64055 2.24035Z" fill="#A8EB12"/>
</g>
<defs>
<clipPath id="clip0_66_31">
<rect width="10" height="10" fill="white"/>
</clipPath>
</defs>
</svg>
