<svg width="10" height="10" viewBox="0 0 10 10" fill="none" xmlns="http://www.w3.org/2000/svg">
<g clip-path="url(#clip0_66_29)">
<path d="M4.99999 2.91671C4.58795 2.91671 4.18516 3.03889 3.84256 3.26781C3.49995 3.49673 3.23293 3.8221 3.07525 4.20278C2.91756 4.58346 2.87631 5.00235 2.95669 5.40648C3.03708 5.81061 3.2355 6.18182 3.52686 6.47318C3.81822 6.76454 4.18943 6.96296 4.59356 7.04334C4.99768 7.12373 5.41657 7.08247 5.79725 6.92479C6.17793 6.76711 6.5033 6.50008 6.73222 6.15748C6.96114 5.81488 7.08333 5.41209 7.08333 5.00004C7.08333 4.44751 6.86383 3.9176 6.47313 3.5269C6.08243 3.1362 5.55253 2.91671 4.99999 2.91671ZM4.99999 6.25004C4.75277 6.25004 4.51109 6.17673 4.30553 6.03938C4.09997 5.90203 3.93975 5.7068 3.84515 5.47839C3.75054 5.24999 3.72578 4.99865 3.77401 4.75618C3.82224 4.5137 3.9413 4.29097 4.11611 4.11616C4.29093 3.94134 4.51366 3.82229 4.75613 3.77406C4.99861 3.72583 5.24994 3.75058 5.47835 3.84519C5.70676 3.9398 5.90198 4.10002 6.03933 4.30558C6.17668 4.51114 6.24999 4.75281 6.24999 5.00004C6.24999 5.33156 6.1183 5.6495 5.88388 5.88392C5.64946 6.11834 5.33152 6.25004 4.99999 6.25004ZM7.08333 2.50004C7.00092 2.50004 6.92036 2.52448 6.85184 2.57026C6.78332 2.61605 6.72991 2.68112 6.69838 2.75726C6.66684 2.83339 6.65859 2.91717 6.67467 2.99799C6.69074 3.07882 6.73043 3.15306 6.7887 3.21133C6.84697 3.26961 6.92121 3.30929 7.00204 3.32537C7.08287 3.34144 7.16664 3.33319 7.24278 3.30166C7.31892 3.27012 7.38399 3.21672 7.42977 3.14819C7.47556 3.07967 7.49999 2.99912 7.49999 2.91671C7.49999 2.8062 7.4561 2.70022 7.37796 2.62208C7.29982 2.54394 7.19383 2.50004 7.08333 2.50004ZM9.14166 3.43337C9.13476 3.0773 9.06712 2.72502 8.94166 2.39171C8.82532 2.0884 8.64649 1.81295 8.41679 1.58325C8.18708 1.35354 7.91163 1.17471 7.60833 1.05837C7.27502 0.932915 6.92274 0.865277 6.56666 0.858374C6.16249 0.833374 6.02916 0.833374 4.99999 0.833374C3.97083 0.833374 3.83749 0.833374 3.43333 0.858374C3.07725 0.865277 2.72497 0.932915 2.39166 1.05837C2.08836 1.17471 1.81291 1.35354 1.5832 1.58325C1.3535 1.81295 1.17467 2.0884 1.05833 2.39171C0.93287 2.72502 0.865231 3.0773 0.858328 3.43337C0.833328 3.84171 0.833328 3.97504 0.833328 5.00004C0.833328 6.02504 0.833328 6.15837 0.858328 6.56671C0.865231 6.92278 0.93287 7.27506 1.05833 7.60837C1.17467 7.91168 1.3535 8.18713 1.5832 8.41683C1.81291 8.64654 2.08836 8.82537 2.39166 8.94171C2.72497 9.06717 3.07725 9.1348 3.43333 9.14171C3.84999 9.14171 3.97083 9.16671 4.99999 9.16671C6.02916 9.16671 6.16249 9.16671 6.56666 9.14171C6.92274 9.1348 7.27502 9.06717 7.60833 8.94171C7.91163 8.82537 8.18708 8.64654 8.41679 8.41683C8.64649 8.18713 8.82532 7.91168 8.94166 7.60837C9.06712 7.27506 9.13476 6.92278 9.14166 6.56671C9.14166 6.15004 9.16666 6.02504 9.16666 5.00004C9.16666 3.97504 9.16666 3.84171 9.14166 3.43337ZM8.30833 6.52921C8.30102 6.79363 8.2518 7.05522 8.16249 7.30421C8.08866 7.50102 7.97195 7.67893 7.82083 7.82504C7.67559 7.97623 7.49732 8.09174 7.29999 8.16254C7.05042 8.2555 6.78708 8.3062 6.52083 8.31254C6.12916 8.31254 6.00833 8.33337 4.99583 8.33337C3.98333 8.33337 3.86666 8.33337 3.47499 8.33337C3.20917 8.32651 2.94614 8.27728 2.69583 8.18754C2.49902 8.1137 2.32111 7.99699 2.17499 7.84587C2.02381 7.70063 1.90829 7.52237 1.83749 7.32504C1.74491 7.0768 1.69422 6.8149 1.68749 6.55004C1.68749 6.13337 1.68749 6.02921 1.68749 5.02087C1.68749 4.01254 1.68749 3.89171 1.68749 3.49171C1.69468 3.22554 1.74535 2.96235 1.83749 2.71254C1.90939 2.51697 2.0248 2.3403 2.17499 2.19587C2.32023 2.04469 2.4985 1.92917 2.69583 1.85837C2.94541 1.76541 3.20874 1.71472 3.47499 1.70837C3.86666 1.66671 3.98749 1.66671 4.99999 1.66671C6.0125 1.66671 6.13333 1.66671 6.52499 1.66671C6.79255 1.67351 7.05718 1.72418 7.30833 1.81671C7.5039 1.88861 7.68057 2.00401 7.825 2.15421C7.97618 2.29945 8.0917 2.47771 8.16249 2.67504C8.26449 2.92861 8.32227 3.19778 8.33333 3.47087C8.33333 3.88754 8.35416 3.99171 8.35416 5.00004C8.35416 6.00837 8.33333 6.12921 8.33333 6.52921H8.30833Z" fill="#A8EB12"/>
</g>
<defs>
<clipPath id="clip0_66_29">
<rect width="10" height="10" fill="white"/>
</clipPath>
</defs>
</svg>
