<svg width="10" height="10" viewBox="0 0 10 10" fill="none" xmlns="http://www.w3.org/2000/svg">
<g clip-path="url(#clip0_66_35)">
<path d="M7.29167 3.74963C6.91865 3.74947 6.55139 3.84173 6.22274 4.01818C6.19275 3.93919 6.13944 3.8712 6.06988 3.82323C6.00033 3.77526 5.91783 3.74959 5.83334 3.74963H4.16667C4.11194 3.7496 4.05775 3.76035 4.00718 3.78128C3.95661 3.80221 3.91067 3.8329 3.87197 3.8716C3.83328 3.91029 3.80258 3.95624 3.78166 4.00681C3.76073 4.05737 3.74997 4.11157 3.75 4.16629V9.16629C3.74997 9.22102 3.76073 9.27522 3.78166 9.32578C3.80258 9.37635 3.83327 9.42229 3.87197 9.46099C3.91067 9.49969 3.95661 9.53038 4.00718 9.55131C4.05775 9.57224 4.11194 9.58299 4.16667 9.58296H5.83334C5.88806 9.58299 5.94226 9.57224 5.99283 9.55131C6.04339 9.53038 6.08934 9.49969 6.12804 9.46099C6.16673 9.42229 6.19742 9.37635 6.21835 9.32578C6.23928 9.27522 6.25003 9.22102 6.25 9.16629V6.87463C6.25 6.76412 6.2939 6.65814 6.37204 6.58C6.45018 6.50186 6.55616 6.45796 6.66667 6.45796C6.77718 6.45796 6.88316 6.50186 6.9613 6.58C7.03944 6.65814 7.08334 6.76412 7.08334 6.87463V9.16629C7.0833 9.22102 7.09406 9.27522 7.11499 9.32578C7.13592 9.37635 7.16661 9.42229 7.2053 9.46099C7.244 9.49969 7.28995 9.53038 7.34051 9.55131C7.39108 9.57224 7.44528 9.58299 7.5 9.58296H9.16667C9.2214 9.58299 9.27559 9.57224 9.32616 9.55131C9.37673 9.53038 9.42267 9.49969 9.46137 9.46099C9.50007 9.42229 9.53076 9.37635 9.55168 9.32578C9.57261 9.27522 9.58337 9.22102 9.58334 9.16629V6.04129C9.58258 5.43374 9.3409 4.85128 8.91129 4.42167C8.48168 3.99207 7.89923 3.75038 7.29167 3.74963ZM8.75 8.74963H7.91667V6.87463C7.91667 6.54311 7.78497 6.22516 7.55055 5.99074C7.31613 5.75632 6.99819 5.62463 6.66667 5.62463C6.33515 5.62463 6.01721 5.75632 5.78279 5.99074C5.54837 6.22516 5.41667 6.54311 5.41667 6.87463V8.74963H4.58334V4.58296H5.41667V4.87593C5.41672 4.96226 5.44357 5.04645 5.49352 5.11687C5.54347 5.18729 5.61405 5.24046 5.69552 5.26904C5.77698 5.29763 5.86531 5.30021 5.94831 5.27644C6.0313 5.25267 6.10487 5.20372 6.15886 5.13635C6.34585 4.89886 6.60233 4.7257 6.8925 4.64103C7.18266 4.55637 7.49203 4.56443 7.77739 4.66409C8.06275 4.76375 8.30987 4.95004 8.48424 5.19694C8.65861 5.44384 8.75152 5.73903 8.75 6.04129V8.74963ZM2.91667 3.74963H1.25C1.19528 3.7496 1.14108 3.76035 1.09051 3.78128C1.03995 3.80221 0.994003 3.8329 0.955306 3.8716C0.916608 3.91029 0.885918 3.95624 0.86499 4.00681C0.844061 4.05737 0.833305 4.11157 0.833336 4.16629V9.16629C0.833305 9.22102 0.84406 9.27522 0.864989 9.32578C0.885917 9.37635 0.916607 9.42229 0.955304 9.46099C0.994002 9.49969 1.03995 9.53038 1.09051 9.55131C1.14108 9.57224 1.19528 9.58299 1.25 9.58296H2.91667C2.9714 9.58299 3.02559 9.57224 3.07616 9.55131C3.12673 9.53038 3.17267 9.49969 3.21137 9.46099C3.25007 9.42229 3.28076 9.37635 3.30168 9.32578C3.32261 9.27522 3.33337 9.22102 3.33334 9.16629V4.16629C3.33337 4.11157 3.32261 4.05737 3.30168 4.00681C3.28076 3.95624 3.25006 3.91029 3.21137 3.8716C3.17267 3.8329 3.12672 3.80221 3.07616 3.78128C3.02559 3.76035 2.9714 3.7496 2.91667 3.74963ZM2.5 8.74963H1.66667V4.58296H2.5V8.74963ZM2.08944 0.642544C1.90709 0.631628 1.72443 0.657917 1.55256 0.719812C1.38069 0.781707 1.2232 0.877914 1.08968 1.00258C0.956154 1.12725 0.849385 1.27777 0.775861 1.445C0.702337 1.61223 0.663596 1.79266 0.661993 1.97533C0.660391 2.158 0.69596 2.33909 0.766538 2.50758C0.837117 2.67607 0.941229 2.82844 1.07254 2.95544C1.20386 3.08243 1.35963 3.18138 1.53039 3.24628C1.70115 3.31118 1.88332 3.34067 2.06584 3.33296H2.07764C2.26047 3.34382 2.4436 3.31729 2.61583 3.25498C2.78806 3.19268 2.94578 3.09591 3.07934 2.97059C3.21291 2.84527 3.31953 2.69403 3.39267 2.52612C3.46582 2.3582 3.50396 2.17714 3.50476 1.99399C3.50556 1.81083 3.46901 1.62944 3.39734 1.46089C3.32568 1.29234 3.22039 1.14017 3.08793 1.01369C2.95546 0.887202 2.7986 0.789054 2.62692 0.72524C2.45524 0.661427 2.27236 0.633288 2.08944 0.642544H2.08944ZM2.07764 2.49963H2.06584C1.99378 2.50838 1.92069 2.50162 1.85146 2.47981C1.78223 2.45799 1.71846 2.42163 1.66444 2.37315C1.61041 2.32468 1.56738 2.26521 1.53822 2.19874C1.50906 2.13227 1.49445 2.06034 1.49537 1.98776C1.49537 1.67688 1.72852 1.47587 2.08944 1.47587C2.16223 1.46617 2.23626 1.47218 2.30653 1.49349C2.3768 1.51481 2.44169 1.55093 2.49683 1.59944C2.55197 1.64794 2.59607 1.7077 2.62617 1.77468C2.65626 1.84167 2.67165 1.91432 2.67131 1.98776C2.67131 2.29863 2.43815 2.49963 2.07764 2.49963Z" fill="#A8EB12"/>
</g>
<defs>
<clipPath id="clip0_66_35">
<rect width="10" height="10" fill="white"/>
</clipPath>
</defs>
</svg>
