<svg width="40" height="21" viewBox="0 0 40 21" fill="none" xmlns="http://www.w3.org/2000/svg">
<rect y="3" width="40" height="15" rx="7.5" fill="#D8E0FF" fill-opacity="0.9"/>
<rect x="27" y="18" width="15" height="15" rx="7.5" transform="rotate(-180 27 18)" fill="#020917"/>
<path d="M21.697 6.86375C21.9899 6.57085 21.9899 6.09598 21.697 5.80309C21.4041 5.51019 20.9293 5.51019 20.6364 5.80308L21.697 6.86375ZM17 10.5001L16.4697 9.96975C16.329 10.1104 16.25 10.3012 16.25 10.5001C16.25 10.699 16.329 10.8898 16.4697 11.0304L17 10.5001ZM20.6364 15.1971C20.9293 15.49 21.4041 15.49 21.697 15.1971C21.9899 14.9042 21.9899 14.4293 21.697 14.1364L20.6364 15.1971ZM20.6364 5.80308L16.4697 9.96975L17.5303 11.0304L21.697 6.86375L20.6364 5.80308ZM16.4697 11.0304L20.6364 15.1971L21.697 14.1364L17.5304 9.96975L16.4697 11.0304Z" fill="#A8EB12"/>
</svg>
