<svg width="10" height="10" viewBox="0 0 10 10" fill="none" xmlns="http://www.w3.org/2000/svg">
<path d="M9.57967 1.64596C9.57972 1.57236 9.56026 1.50007 9.52328 1.43644C9.4863 1.37281 9.43312 1.32011 9.36914 1.28372C9.30517 1.24733 9.2327 1.22855 9.15911 1.22928C9.08552 1.23001 9.01343 1.25023 8.95019 1.28788C8.70631 1.43305 8.44375 1.54421 8.16978 1.6183C7.77852 1.28256 7.2795 1.09884 6.76394 1.10072C6.19835 1.10137 5.65515 1.3218 5.24903 1.71546C4.84292 2.10913 4.60569 2.64521 4.58743 3.21051C3.47242 3.0327 2.46186 2.45072 1.74845 1.57556C1.70547 1.52341 1.65057 1.48236 1.58839 1.45587C1.52622 1.42939 1.45858 1.41824 1.39119 1.42338C1.32384 1.42892 1.25886 1.45079 1.20186 1.48709C1.14486 1.52339 1.09755 1.57303 1.06404 1.63171C0.89218 1.93163 0.793473 2.26786 0.77594 2.61309C0.758406 2.95832 0.822539 3.30281 0.963131 3.61861L0.962319 3.61942C0.89913 3.65834 0.846982 3.71282 0.810863 3.77765C0.774743 3.84248 0.75586 3.91549 0.756019 3.9897C0.755254 4.05092 0.758926 4.11212 0.767006 4.17281C0.809564 4.69708 1.04192 5.18783 1.42049 5.55301C1.39481 5.60194 1.37913 5.65549 1.37438 5.71055C1.36963 5.7656 1.3759 5.82105 1.39282 5.87365C1.55787 6.38788 1.90886 6.82201 2.37711 7.0911C1.90138 7.27506 1.38771 7.3392 0.881344 7.27787C0.787624 7.26611 0.69269 7.28655 0.612114 7.33584C0.531538 7.38512 0.470105 7.46033 0.437892 7.54912C0.405679 7.63792 0.404598 7.73502 0.434828 7.82451C0.465057 7.91399 0.524801 7.99055 0.604261 8.04162C1.47513 8.60252 2.48913 8.90073 3.525 8.9006C4.69969 8.91381 5.84582 8.53844 6.7851 7.83287C7.72438 7.1273 8.40415 6.13109 8.71867 4.99921C8.86578 4.50614 8.94089 3.99441 8.94166 3.47986C8.94166 3.4526 8.94166 3.42452 8.94125 3.39645C9.1588 3.16183 9.32732 2.88616 9.43695 2.58557C9.54657 2.28499 9.5951 1.96554 9.57967 1.64596ZM8.2019 2.98426C8.13308 3.06565 8.09826 3.17042 8.10465 3.27682C8.10872 3.34557 8.10831 3.41473 8.10831 3.47986C8.10746 3.91467 8.04373 4.34707 7.91911 4.76363C7.66223 5.72672 7.08959 6.57573 6.29289 7.17472C5.49619 7.7737 4.52153 8.08799 3.525 8.06726C3.16703 8.06737 2.8103 8.02531 2.46217 7.94194C2.90609 7.79888 3.32117 7.57832 3.68816 7.29049C3.75576 7.23727 3.80523 7.16443 3.82978 7.08198C3.85434 6.99953 3.85278 6.9115 3.82532 6.82997C3.79786 6.74844 3.74584 6.6774 3.67641 6.62661C3.60697 6.57581 3.52352 6.54775 3.4375 6.54627C3.09118 6.54088 2.76047 6.40128 2.51505 6.15686C2.57731 6.14506 2.63916 6.13042 2.7006 6.11292C2.79061 6.0873 2.86937 6.03214 2.92421 5.95631C2.97905 5.88048 3.00678 5.78841 3.00292 5.69491C2.99907 5.60141 2.96386 5.51192 2.90297 5.44087C2.84208 5.36981 2.75904 5.32131 2.66724 5.30318C2.46621 5.26348 2.27705 5.17796 2.11445 5.05326C1.95185 4.92856 1.8202 4.76804 1.72974 4.58419C1.80504 4.59447 1.88082 4.60085 1.95679 4.60331C2.04703 4.60468 2.13537 4.5773 2.20903 4.52515C2.28268 4.473 2.33785 4.39877 2.36654 4.31319C2.39403 4.22684 2.39261 4.13389 2.36251 4.04841C2.3324 3.96294 2.27524 3.88962 2.19971 3.83956C2.01644 3.71746 1.86631 3.55182 1.76277 3.35746C1.65924 3.1631 1.60552 2.94609 1.60644 2.72588C1.60644 2.69821 1.60726 2.67054 1.60889 2.64328C2.54274 3.51422 3.75402 4.02763 5.0293 4.09306C5.09368 4.0956 5.15778 4.08348 5.21678 4.05761C5.27578 4.03174 5.32814 3.9928 5.36988 3.94373C5.41121 3.89419 5.44047 3.83573 5.45536 3.77296C5.47026 3.71019 5.47038 3.64482 5.45572 3.582C5.43189 3.48257 5.41973 3.38069 5.4195 3.27845C5.41988 2.922 5.56165 2.58027 5.81369 2.32822C6.06573 2.07618 6.40747 1.93442 6.76392 1.93404C6.9473 1.93355 7.1288 1.97108 7.29696 2.04427C7.46511 2.11746 7.61627 2.22471 7.74088 2.35926C7.78894 2.41096 7.84942 2.4495 7.91659 2.47123C7.98375 2.49295 8.05535 2.49714 8.12458 2.48338C8.29574 2.45007 8.46445 2.40521 8.62955 2.3491C8.51694 2.57951 8.37303 2.79325 8.2019 2.98426Z" fill="#A8EB12"/>
</svg>
