<svg width="261" height="261" viewBox="0 0 261 261" fill="none" xmlns="http://www.w3.org/2000/svg">
<g filter="url(#filter0_d_32_366)">
<rect x="40.7612" y="36.594" width="180" height="180" rx="32" fill="white"/>
<rect x="41.2612" y="37.094" width="179" height="179" rx="31.5" stroke="#D9D9D9"/>
</g>
<path d="M92.5069 135.924C97.8796 135.924 102.235 131.569 102.235 126.196C102.235 120.823 97.8796 116.468 92.5069 116.468C87.1342 116.468 82.7788 120.823 82.7788 126.196C82.7788 131.569 87.1342 135.924 92.5069 135.924Z" fill="#FF6309"/>
<path d="M162.263 176.188C167.636 176.188 171.992 171.832 171.992 166.459C171.992 161.086 167.636 156.731 162.263 156.731C156.89 156.731 152.535 161.086 152.535 166.459C152.535 171.832 156.89 176.188 162.263 176.188Z" fill="#FFB515"/>
<path d="M162.255 95.6445C167.628 95.6445 171.983 91.289 171.983 85.9163C171.983 80.5437 167.628 76.1882 162.255 76.1882C156.882 76.1882 152.527 80.5437 152.527 85.9163C152.527 91.289 156.882 95.6445 162.255 95.6445Z" fill="#C90016"/>
<path d="M139.01 102.124C151.123 102.124 161.173 111.118 162.838 122.779H179.504C178.746 113.616 174.949 105.076 168.597 98.3407C164.529 100.412 159.527 100.452 155.278 97.9995C151.026 95.5438 148.559 91.1896 148.322 86.626C145.269 85.9149 142.144 85.5565 139.008 85.5579C132.927 85.5579 127.05 86.8851 121.705 89.4025L130.051 103.855C132.899 102.709 135.94 102.121 139.01 102.124Z" fill="#FF6309"/>
<path d="M114.939 126.196C114.939 118.527 118.544 111.685 124.147 107.274L115.805 92.823C113.828 94.2039 111.977 95.7556 110.272 97.4601C105.444 102.288 101.982 108.117 100.077 114.479C103.916 116.965 106.457 121.282 106.457 126.196C106.457 131.109 103.916 135.426 100.077 137.911C101.982 144.273 105.444 150.102 110.272 154.931C111.976 156.635 113.825 158.186 115.8 159.567L124.144 145.114C118.542 140.704 114.939 133.863 114.939 126.196Z" fill="#FFB515"/>
<path d="M162.839 129.601C161.179 141.266 151.127 150.267 139.01 150.267C135.844 150.267 132.818 149.65 130.048 148.534L121.703 162.987C127.046 165.506 132.926 166.834 139.009 166.834C142.187 166.834 145.31 166.467 148.33 165.764C148.563 161.195 151.029 156.833 155.285 154.376C159.535 151.922 164.539 151.96 168.607 154.036C174.953 147.3 178.748 138.761 179.503 129.601H162.839Z" fill="#C90016"/>
<defs>
<filter id="filter0_d_32_366" x="0.76123" y="0.593994" width="260" height="260" filterUnits="userSpaceOnUse" color-interpolation-filters="sRGB">
<feFlood flood-opacity="0" result="BackgroundImageFix"/>
<feColorMatrix in="SourceAlpha" type="matrix" values="0 0 0 0 0 0 0 0 0 0 0 0 0 0 0 0 0 0 127 0" result="hardAlpha"/>
<feOffset dy="4"/>
<feGaussianBlur stdDeviation="20"/>
<feComposite in2="hardAlpha" operator="out"/>
<feColorMatrix type="matrix" values="0 0 0 0 0.0367917 0 0 0 0 0.0348958 0 0 0 0 0.0484375 0 0 0 0.1 0"/>
<feBlend mode="normal" in2="BackgroundImageFix" result="effect1_dropShadow_32_366"/>
<feBlend mode="normal" in="SourceGraphic" in2="effect1_dropShadow_32_366" result="shape"/>
</filter>
</defs>
</svg>
