<svg width="7" height="7" viewBox="0 0 7 7" fill="none" xmlns="http://www.w3.org/2000/svg">
<path d="M6.97079 3.36C6.26404 1.71907 4.9345 0.700928 3.5 0.700928C2.0655 0.700928 0.735963 1.71907 0.0292095 3.36C0.00994404 3.40414 0 3.45179 0 3.49995C0 3.54812 0.00994404 3.59576 0.0292095 3.6399C0.735963 5.28083 2.0655 6.29898 3.5 6.29898C4.9345 6.29898 6.26404 5.28083 6.97079 3.6399C6.99006 3.59576 7 3.54812 7 3.49995C7 3.45179 6.99006 3.40414 6.97079 3.36ZM3.5 5.59922C2.38739 5.59922 1.34125 4.798 0.735963 3.49995C1.34125 2.2019 2.38739 1.40068 3.5 1.40068C4.61261 1.40068 5.65875 2.2019 6.26404 3.49995C5.65875 4.798 4.61261 5.59922 3.5 5.59922ZM3.5 2.10044C3.2232 2.10044 2.95262 2.18252 2.72247 2.3363C2.49232 2.49008 2.31294 2.70865 2.20702 2.96438C2.10109 3.22011 2.07338 3.5015 2.12738 3.77298C2.18138 4.04446 2.31467 4.29383 2.5104 4.48956C2.70612 4.68528 2.95549 4.81857 3.22697 4.87257C3.49845 4.92657 3.77984 4.89886 4.03557 4.79293C4.2913 4.68701 4.50987 4.50763 4.66365 4.27748C4.81743 4.04733 4.89951 3.77675 4.89951 3.49995C4.89951 3.12878 4.75206 2.77281 4.4896 2.51035C4.22715 2.24789 3.87117 2.10044 3.5 2.10044ZM3.5 4.19971C3.3616 4.19971 3.22631 4.15867 3.11124 4.08178C2.99616 4.00489 2.90647 3.8956 2.85351 3.76774C2.80055 3.63987 2.78669 3.49918 2.81369 3.36344C2.84069 3.2277 2.90734 3.10301 3.0052 3.00515C3.10306 2.90729 3.22774 2.84064 3.36348 2.81364C3.49922 2.78664 3.63992 2.8005 3.76778 2.85346C3.89565 2.90642 4.00494 2.99611 4.08183 3.11119C4.15872 3.22626 4.19976 3.36155 4.19976 3.49995C4.19976 3.68554 4.12603 3.86352 3.9948 3.99475C3.86357 4.12598 3.68559 4.19971 3.5 4.19971Z" fill="#D9D9D9" fill-opacity="0.9"/>
</svg>
