<svg width="261" height="261" viewBox="0 0 261 261" fill="none" xmlns="http://www.w3.org/2000/svg">
<g filter="url(#filter0_d_22_664)">
<rect x="40.9329" y="36.7029" width="180" height="180" rx="32" fill="white"/>
<rect x="41.4329" y="37.2029" width="179" height="179" rx="31.5" stroke="#D9D9D9"/>
</g>
<path d="M177.031 76.2971H128.877C128.877 82.0624 131.167 87.5915 135.243 91.6681C139.32 95.7447 144.849 98.035 150.614 98.035H159.485V106.6C159.493 118.594 169.214 128.316 181.209 128.324V80.4746C181.209 78.1681 179.339 76.2971 177.031 76.2971Z" fill="#2684FF"/>
<path d="M153.205 100.291H105.05C105.058 112.286 114.779 122.007 126.774 122.015H135.645V130.607C135.66 142.602 145.388 152.317 157.382 152.317V104.469C157.382 102.162 155.512 100.291 153.205 100.291V100.291Z" fill="url(#paint0_linear_22_664)"/>
<path d="M129.364 124.271H81.2089C81.2089 136.277 90.9416 146.009 102.947 146.009H111.845V154.573C111.853 166.557 121.558 176.274 133.542 176.297V128.449C133.542 126.142 131.671 124.271 129.364 124.271Z" fill="url(#paint1_linear_22_664)"/>
<defs>
<filter id="filter0_d_22_664" x="0.932861" y="0.702881" width="260" height="260" filterUnits="userSpaceOnUse" color-interpolation-filters="sRGB">
<feFlood flood-opacity="0" result="BackgroundImageFix"/>
<feColorMatrix in="SourceAlpha" type="matrix" values="0 0 0 0 0 0 0 0 0 0 0 0 0 0 0 0 0 0 127 0" result="hardAlpha"/>
<feOffset dy="4"/>
<feGaussianBlur stdDeviation="20"/>
<feComposite in2="hardAlpha" operator="out"/>
<feColorMatrix type="matrix" values="0 0 0 0 0.0367917 0 0 0 0 0.0348958 0 0 0 0 0.0484375 0 0 0 0.1 0"/>
<feBlend mode="normal" in2="BackgroundImageFix" result="effect1_dropShadow_22_664"/>
<feBlend mode="normal" in="SourceGraphic" in2="effect1_dropShadow_22_664" result="shape"/>
</filter>
<linearGradient id="paint0_linear_22_664" x1="156.352" y1="100.375" x2="135.992" y2="121.619" gradientUnits="userSpaceOnUse">
<stop offset="0.18" stop-color="#0052CC"/>
<stop offset="1" stop-color="#2684FF"/>
</linearGradient>
<linearGradient id="paint1_linear_22_664" x1="133.89" y1="124.508" x2="110.338" y2="147.679" gradientUnits="userSpaceOnUse">
<stop offset="0.18" stop-color="#0052CC"/>
<stop offset="1" stop-color="#2684FF"/>
</linearGradient>
</defs>
</svg>
